<?xml version="1.0" encoding="UTF-8"?>
<svg xmlns="http://www.w3.org/2000/svg" xmlns:xlink="http://www.w3.org/1999/xlink" width="24pt" height="24pt" viewBox="0 0 24 24" version="1.1">
<g id="surface17939641">
<path style=" stroke:none;fill-rule:nonzero;fill:rgb(100%,70.588235%,0%);fill-opacity:1;" d="M 12 24 C 5.371094 24 0 18.628906 0 12 C 0 5.371094 5.371094 0 12 0 C 18.628906 0 24 5.371094 24 12 C 24 18.628906 18.628906 24 12 24 Z M 12 24 "/>
<path style=" stroke:none;fill-rule:nonzero;fill:rgb(0%,0%,0%);fill-opacity:1;" d="M 10.398438 4 L 9.601562 4.800781 L 6.398438 4.800781 C 5.921875 4.800781 5.601562 5.121094 5.601562 5.601562 C 5.601562 6.078125 5.921875 6.398438 6.398438 6.398438 L 17.601562 6.398438 C 18.078125 6.398438 18.398438 6.078125 18.398438 5.601562 C 18.398438 5.121094 18.078125 4.800781 17.601562 4.800781 L 14.398438 4.800781 L 13.601562 4 Z M 6.398438 8 L 6.398438 18.398438 C 6.398438 19.28125 7.121094 20 8 20 L 16 20 C 16.878906 20 17.601562 19.28125 17.601562 18.398438 L 17.601562 8 Z M 9.601562 9.601562 C 10.078125 9.601562 10.398438 9.921875 10.398438 10.398438 L 10.398438 17.601562 C 10.398438 18.078125 10.078125 18.398438 9.601562 18.398438 C 9.121094 18.398438 8.800781 18.078125 8.800781 17.601562 L 8.800781 10.398438 C 8.800781 9.921875 9.121094 9.601562 9.601562 9.601562 Z M 14.398438 9.601562 C 14.878906 9.601562 15.199219 9.921875 15.199219 10.398438 L 15.199219 17.601562 C 15.199219 18.078125 14.878906 18.398438 14.398438 18.398438 C 13.921875 18.398438 13.601562 18.078125 13.601562 17.601562 L 13.601562 10.398438 C 13.601562 9.921875 13.921875 9.601562 14.398438 9.601562 Z M 14.398438 9.601562 "/>
</g>
</svg>
