<?xml version="1.0" encoding="UTF-8"?>
<svg xmlns="http://www.w3.org/2000/svg" xmlns:xlink="http://www.w3.org/1999/xlink" width="24pt" height="24pt" viewBox="0 0 24 24" version="1.1">
<g id="surface17940318">
<path style=" stroke:none;fill-rule:nonzero;fill:rgb(100%,73.72549%,0%);fill-opacity:1;" d="M 12 24 C 5.371094 24 0 18.628906 0 12 C 0 5.371094 5.371094 0 12 0 C 18.628906 0 24 5.371094 24 12 C 24 18.628906 18.628906 24 12 24 Z M 12 24 "/>
<path style=" stroke:none;fill-rule:nonzero;fill:rgb(0%,0%,0%);fill-opacity:1;" d="M 17.835938 3.898438 C 17.257812 3.898438 16.679688 4.121094 16.238281 4.5625 L 15.300781 5.5 L 18.5 8.699219 L 19.4375 7.761719 C 20.320312 6.878906 20.320312 5.445312 19.4375 4.5625 C 18.996094 4.121094 18.417969 3.898438 17.835938 3.898438 Z M 14.101562 6.699219 L 4.898438 15.898438 L 4.898438 19.101562 L 8.101562 19.101562 L 17.300781 9.898438 Z M 14.101562 6.699219 "/>
</g>
</svg>
